<svg width="20" height="20" viewBox="0 0 20 20" fill="none" xmlns="http://www.w3.org/2000/svg">
<path d="M13.9814 0.744439C15.0616 -0.248146 16.722 -0.248146 17.8023 0.744439C17.8465 0.785089 17.8937 0.832327 17.9551 0.893667L18.8765 1.81516C19.8038 2.74243 20.1931 4.07916 19.9086 5.35928C18.2946 12.6223 12.6223 18.2946 5.35928 19.9086C4.07916 20.1931 2.74243 19.8038 1.81516 18.8765L0.893761 17.9551C0.832371 17.8938 0.785109 17.8465 0.74444 17.8023C-0.248144 16.722 -0.248144 15.0616 0.74444 13.9814C0.785109 13.9372 0.832367 13.8899 0.893753 13.8285L2.40231 12.32C3.44969 11.2726 5.03141 10.973 6.38924 11.5649C7.16659 11.9038 8.07213 11.7323 8.67175 11.1327L11.1327 8.67175C11.7323 8.07213 11.9038 7.16659 11.5649 6.38924C10.973 5.03141 11.2726 3.44969 12.32 2.40231L13.8286 0.893683C13.8899 0.832336 13.9372 0.785093 13.9814 0.744439Z" fill="#7D8FAB"/>
</svg>
