<svg width="67" height="42" viewBox="0 0 67 42" fill="none" xmlns="http://www.w3.org/2000/svg">
<path d="M66.0549 41.318H0.704646C0.318227 41.318 0 40.9993 0 40.6123V0.705705C0 0.318704 0.318227 0 0.704646 0H66.0549C66.4414 0 66.7596 0.318704 66.7596 0.705705V40.5896C66.7823 40.9993 66.4641 41.318 66.0549 41.318Z" fill="#044881"/>
<path d="M66.7823 2.84559V38.4952C66.7823 39.1326 66.5778 39.7245 66.2141 40.2026C65.8731 40.6579 65.373 40.9993 64.8275 41.1814C64.5547 41.2725 64.2592 41.318 63.9637 41.318H2.84132C1.27291 41.318 0 40.0432 0 38.4724V2.84559C0 1.27483 1.27291 0 2.84132 0H63.941C65.5094 0 66.7823 1.27483 66.7823 2.84559Z" fill="#044881"/>
<path d="M52.3526 9.25898C52.1254 9.25898 51.9189 9.20017 51.7331 9.08256C51.5473 8.96494 51.3989 8.78851 51.288 8.55327C51.1771 8.31803 51.1216 8.02598 51.1216 7.67714C51.1216 7.31492 51.1791 7.01686 51.294 6.78296C51.409 6.54906 51.5593 6.37597 51.7451 6.2637C51.9322 6.15142 52.1334 6.09529 52.3486 6.09529C52.5103 6.09529 52.6487 6.12336 52.7636 6.17949C52.8785 6.23429 52.9735 6.30513 53.0483 6.39201C53.1212 6.47659 53.1769 6.56434 53.2156 6.65526C53.2175 6.65974 53.2219 6.66267 53.2267 6.66267C53.2334 6.66267 53.2388 6.65729 53.2388 6.65065V5.59909C53.2388 5.32836 53.4582 5.10889 53.729 5.10889C53.9997 5.10889 54.2192 5.32836 54.2192 5.59909V8.72969C54.2192 8.99765 54.0019 9.21488 53.734 9.21488H53.4984C53.3605 9.21488 53.2488 9.10312 53.2488 8.96527V8.73384C53.2488 8.7238 53.2407 8.71566 53.2306 8.71566C53.2234 8.71566 53.2169 8.71995 53.2139 8.72653C53.1728 8.81735 53.1156 8.90261 53.0423 8.98231C52.9661 9.06518 52.8705 9.13201 52.7556 9.1828C52.642 9.23359 52.5076 9.25898 52.3526 9.25898ZM52.6934 8.49513C52.8124 8.49513 52.914 8.46171 52.9982 8.39488C53.0824 8.32672 53.1472 8.23115 53.1927 8.10818C53.2381 7.98522 53.2608 7.84087 53.2608 7.67513C53.2608 7.50672 53.2381 7.3617 53.1927 7.24007C53.1485 7.11844 53.0837 7.02488 52.9982 6.95939C52.914 6.8939 52.8124 6.86115 52.6934 6.86115C52.5718 6.86115 52.4689 6.89456 52.3847 6.96139C52.3005 7.02822 52.2363 7.12245 52.1922 7.24408C52.1494 7.36571 52.128 7.50939 52.128 7.67513C52.128 7.84087 52.1501 7.98522 52.1942 8.10818C52.2383 8.23115 52.3018 8.32672 52.3847 8.39488C52.4689 8.46171 52.5718 8.49513 52.6934 8.49513Z" fill="white"/>
<path d="M49.499 9.21779C49.2283 9.21779 49.0088 8.99832 49.0088 8.72759V6.61446C49.0088 6.35148 49.222 6.13829 49.485 6.13829H49.6804C49.8355 6.13829 49.9611 6.26396 49.9611 6.41898V6.68145C49.9611 6.69151 49.9693 6.69966 49.9793 6.69966C49.9875 6.69966 49.9947 6.69416 49.997 6.68629C50.0534 6.48986 50.1437 6.34328 50.2679 6.24656C50.3948 6.14631 50.5425 6.09619 50.711 6.09619C50.7564 6.09619 50.8032 6.09953 50.8513 6.10622C50.932 6.11518 50.9856 6.18812 50.9856 6.26928V6.79569C50.9856 6.88816 50.893 6.95753 50.8012 6.94626C50.7263 6.9369 50.6595 6.93223 50.6007 6.93223C50.4844 6.93223 50.3795 6.95829 50.2859 7.01042C50.1937 7.06121 50.1208 7.13271 50.0674 7.22494C50.0153 7.31583 49.9892 7.42275 49.9892 7.54572V8.72759C49.9892 8.99832 49.7697 9.21779 49.499 9.21779Z" fill="white"/>
<path d="M46.5657 9.26791C46.3692 9.26791 46.1948 9.23516 46.0424 9.16967C45.8914 9.10284 45.7718 9.0026 45.6835 8.86894C45.5967 8.73394 45.5532 8.56487 45.5532 8.3617C45.5532 8.19062 45.5833 8.04627 45.6434 7.92865C45.7036 7.81103 45.7865 7.71546 45.8921 7.64195C45.9976 7.56844 46.1193 7.51297 46.2569 7.47555C46.3946 7.43679 46.5416 7.41072 46.698 7.39736C46.8731 7.38132 47.0141 7.36461 47.1211 7.34724C47.228 7.32852 47.3055 7.30246 47.3536 7.26905C47.4031 7.23429 47.4278 7.18551 47.4278 7.12269V7.11266C47.4278 7.00975 47.3924 6.93022 47.3216 6.87408C47.2507 6.81795 47.1551 6.78988 47.0349 6.78988C46.9052 6.78988 46.8009 6.81795 46.7221 6.87408C46.5883 6.96931 46.4523 7.10241 46.2882 7.09659L46.1836 7.09288C45.9079 7.0831 45.6955 6.82373 45.8553 6.59884C45.8614 6.59028 45.8676 6.58178 45.874 6.57335C45.9863 6.42499 46.14 6.30871 46.3351 6.2245C46.5316 6.13896 46.7675 6.09619 47.0429 6.09619C47.2394 6.09619 47.4205 6.11958 47.5862 6.16636C47.7519 6.21181 47.8963 6.27864 48.0193 6.36685C48.1422 6.45373 48.2371 6.56065 48.304 6.68763C48.3721 6.81461 48.4062 6.95963 48.4062 7.12269V8.75465C48.4062 9.00933 48.1998 9.21578 47.9451 9.21578H47.6985C47.58 9.21578 47.484 9.11974 47.484 9.00126V8.80174C47.484 8.79345 47.4772 8.78674 47.469 8.78674C47.4634 8.78674 47.4583 8.78983 47.4556 8.79474C47.4015 8.89551 47.3327 8.98106 47.2494 9.05138C47.1652 9.12356 47.0656 9.17769 46.9506 9.21378C46.837 9.24987 46.7087 9.26791 46.5657 9.26791ZM46.8684 8.62635C46.974 8.62635 47.0689 8.60496 47.1531 8.56219C47.2387 8.51942 47.3069 8.46061 47.3576 8.38576C47.4084 8.30958 47.4338 8.22136 47.4338 8.12112V7.9384C47.4338 7.88838 47.3795 7.85413 47.3316 7.8685C47.2928 7.88053 47.25 7.89189 47.2033 7.90259C47.1565 7.91328 47.1084 7.92264 47.0589 7.93066C47.0095 7.93867 46.962 7.94603 46.9166 7.95271C46.8243 7.96741 46.7455 7.99013 46.68 8.02087C46.6158 8.05162 46.5664 8.09171 46.5316 8.14117C46.4982 8.18928 46.4815 8.24676 46.4815 8.31359C46.4815 8.41517 46.5176 8.49269 46.5898 8.54615C46.6633 8.59962 46.7562 8.62635 46.8684 8.62635Z" fill="white"/>
<path d="M45.0032 6.06144C45.1195 6.3368 44.876 6.60137 44.5771 6.60137H44.4245C44.2575 6.60137 44.125 6.47204 44.0503 6.3227C44.0089 6.23983 43.9541 6.16899 43.8859 6.11018C43.8178 6.05137 43.7369 6.00659 43.6434 5.97585C43.5511 5.94377 43.4489 5.92773 43.3366 5.92773C43.1374 5.92773 42.9657 5.97652 42.8213 6.07409C42.6783 6.17166 42.5681 6.31267 42.4905 6.49712C42.4143 6.68157 42.3762 6.90478 42.3762 7.16675C42.3762 7.43941 42.415 7.66797 42.4925 7.85242C42.5714 8.03553 42.6817 8.17387 42.8233 8.26743C42.9664 8.35965 43.1354 8.40576 43.3306 8.40576C43.4402 8.40576 43.5398 8.39173 43.6293 8.36366C43.7202 8.33559 43.7997 8.29483 43.8679 8.24136C43.9374 8.18656 43.9942 8.1204 44.0383 8.04288C44.1203 7.90066 44.2527 7.77695 44.4168 7.77794L44.5716 7.77887C44.8743 7.78068 45.112 8.04884 44.9766 8.31955C44.8897 8.49598 44.7701 8.65704 44.6177 8.80273C44.4654 8.94708 44.2796 9.06203 44.0604 9.14757C43.8425 9.23311 43.5926 9.27588 43.3105 9.27588C42.939 9.27588 42.6061 9.19435 42.3121 9.03129C42.0194 8.86689 41.7881 8.62764 41.6184 8.31354C41.4486 7.99944 41.3638 7.61718 41.3638 7.16675C41.3638 6.71498 41.45 6.33205 41.6224 6.01795C41.7948 5.70386 42.0281 5.46528 42.3221 5.30221C42.6162 5.13915 42.9456 5.05762 43.3105 5.05762C43.5591 5.05762 43.789 5.09237 44.0002 5.16187C44.2114 5.23004 44.3972 5.33028 44.5576 5.4626C44.718 5.59359 44.8483 5.75465 44.9485 5.94578C44.9682 5.98328 44.9864 6.02183 45.0032 6.06144Z" fill="white"/>
<path d="M38.3007 9.21779C38.03 9.21779 37.8105 8.99832 37.8105 8.72759V6.61446C37.8105 6.35148 38.0237 6.13829 38.2867 6.13829H38.4822C38.6372 6.13829 38.7629 6.26396 38.7629 6.41898V6.68145C38.7629 6.69151 38.771 6.69966 38.7811 6.69966C38.7893 6.69966 38.7965 6.69416 38.7987 6.68629C38.8551 6.48986 38.9455 6.34328 39.0696 6.24656C39.1966 6.14631 39.3443 6.09619 39.5127 6.09619C39.5582 6.09619 39.6049 6.09953 39.6531 6.10622C39.7337 6.11518 39.7874 6.18812 39.7874 6.26928V6.79569C39.7874 6.88816 39.6947 6.95753 39.6029 6.94626C39.5281 6.9369 39.4613 6.93223 39.4024 6.93223C39.2862 6.93223 39.1812 6.95829 39.0877 7.01042C38.9954 7.06121 38.9226 7.13271 38.8691 7.22494C38.817 7.31583 38.7909 7.42275 38.7909 7.54572V8.72759C38.7909 8.99832 38.5715 9.21779 38.3007 9.21779Z" fill="white"/>
<path d="M35.8498 9.27392C35.5277 9.27392 35.2497 9.21044 35.0158 9.08346C34.7832 8.95515 34.6041 8.7727 34.4784 8.53613C34.3541 8.29822 34.292 8.01553 34.292 7.68806C34.292 7.36996 34.3548 7.09195 34.4805 6.85404C34.6061 6.61479 34.7832 6.429 35.0118 6.29668C35.2403 6.16302 35.5096 6.09619 35.8197 6.09619C36.0389 6.09619 36.2394 6.13027 36.4212 6.19844C36.603 6.26661 36.76 6.36752 36.8924 6.50118C37.0247 6.63484 37.1276 6.7999 37.2011 6.99638C37.2746 7.19152 37.3114 7.4154 37.3114 7.66802C37.3114 7.8031 37.2019 7.91261 37.0668 7.91261H34.9195C34.7623 7.91261 34.6348 7.78515 34.6348 7.62792C34.6348 7.47069 34.7623 7.34323 34.9195 7.34323H36.1074C36.2679 7.34323 36.4066 7.20278 36.325 7.06455C36.2769 6.98302 36.2107 6.91953 36.1265 6.87408C36.0436 6.8273 35.948 6.80391 35.8398 6.80391C35.7302 6.80391 35.6319 6.82864 35.5451 6.87809C35.4582 6.92621 35.3893 6.99237 35.3386 7.07658C35.2878 7.15945 35.261 7.25367 35.2584 7.35926V7.93867C35.2584 8.06431 35.2831 8.17458 35.3325 8.26948C35.382 8.36304 35.4522 8.43588 35.5431 8.48801C35.6339 8.54014 35.7422 8.5662 35.8679 8.5662C35.9547 8.5662 36.0336 8.55417 36.1044 8.53011C36.1753 8.50606 36.2361 8.47064 36.2869 8.42386C36.3787 8.33928 36.4851 8.25387 36.6099 8.25748L36.7434 8.26134C37.0366 8.26983 37.2579 8.55232 37.0743 8.7811C37.0679 8.78906 37.0614 8.79696 37.0548 8.80478C36.9291 8.95314 36.764 9.06876 36.5595 9.15163C36.355 9.23316 36.1185 9.27392 35.8498 9.27392Z" fill="white"/>
<path d="M33.5848 6.13574C33.7841 6.13574 33.9457 6.29732 33.9457 6.49662C33.9457 6.69593 33.7841 6.8575 33.5848 6.8575H32.3638C32.1645 6.8575 32.0029 6.69593 32.0029 6.49662C32.0029 6.29732 32.1645 6.13574 32.3638 6.13574H33.5848ZM32.4099 5.88815C32.4099 5.61742 32.6294 5.39795 32.9001 5.39795C33.1709 5.39795 33.3903 5.61742 33.3903 5.88815V8.24688C33.3903 8.30703 33.3997 8.35581 33.4184 8.39324C33.4384 8.42933 33.4672 8.45539 33.5046 8.47143C33.542 8.48613 33.5868 8.49348 33.6389 8.49348C33.6764 8.49348 33.7158 8.49014 33.7572 8.48346C33.81 8.47357 33.8626 8.5071 33.8736 8.55963L33.9598 8.97075C33.9835 9.08367 33.9157 9.19493 33.8033 9.22125C33.7191 9.2413 33.6182 9.254 33.5006 9.25934C33.2707 9.27004 33.0736 9.24331 32.9091 9.17915C32.7461 9.11366 32.6211 9.01208 32.5342 8.87441C32.4487 8.73674 32.4073 8.56365 32.4099 8.35514V5.88815Z" fill="white"/>
<path d="M31.4977 6.61603C31.6425 6.83889 31.4245 7.08255 31.1588 7.08966L30.937 7.09558C30.8292 7.09846 30.7411 7.01291 30.6718 6.93022C30.6303 6.87943 30.5762 6.84 30.5094 6.81193C30.4439 6.78253 30.3677 6.76783 30.2808 6.76783C30.1672 6.76783 30.0703 6.79055 29.9901 6.83599C29.9112 6.88144 29.8725 6.94292 29.8738 7.02044C29.8725 7.08059 29.8965 7.13271 29.946 7.17682C29.9968 7.22093 30.087 7.25635 30.2167 7.28308L30.8101 7.39535C31.1175 7.45416 31.3461 7.55173 31.4958 7.68806C31.6468 7.8244 31.723 8.00484 31.7243 8.22938C31.723 8.44056 31.6602 8.62434 31.5359 8.78072C31.4129 8.9371 31.2445 9.05873 31.0306 9.14561C30.8168 9.23115 30.5722 9.27392 30.2969 9.27392C29.8571 9.27392 29.5103 9.1837 29.2563 9.00326C29.1628 8.93595 29.084 8.8602 29.0202 8.77602C28.843 8.54247 29.0763 8.2672 29.3694 8.25992L29.477 8.25725C29.6585 8.25274 29.8063 8.4064 29.958 8.50606C30.0476 8.56486 30.1619 8.59427 30.3009 8.59427C30.4265 8.59427 30.5288 8.57088 30.6076 8.5241C30.6865 8.47732 30.7266 8.41517 30.7279 8.33765C30.7266 8.26814 30.6958 8.21267 30.6357 8.17124C30.5755 8.12847 30.4813 8.09505 30.353 8.071L29.8157 7.96875C29.5069 7.91261 29.277 7.80903 29.126 7.65799C28.9749 7.50562 28.9001 7.31182 28.9014 7.07658C28.9001 6.87074 28.9549 6.69498 29.0658 6.54929C29.1768 6.40227 29.3345 6.29 29.539 6.21247C29.7435 6.13495 29.9848 6.09619 30.2628 6.09619C30.6798 6.09619 31.0086 6.18374 31.2492 6.35883C31.3515 6.43272 31.4343 6.51845 31.4977 6.61603Z" fill="white"/>
<path d="M26.512 9.26791C26.3155 9.26791 26.1411 9.23516 25.9887 9.16967C25.8377 9.10284 25.718 9.0026 25.6298 8.86894C25.5429 8.73394 25.4995 8.56487 25.4995 8.3617C25.4995 8.19062 25.5296 8.04627 25.5897 7.92865C25.6499 7.81103 25.7327 7.71546 25.8383 7.64195C25.9439 7.56844 26.0656 7.51297 26.2032 7.47555C26.3409 7.43679 26.4879 7.41072 26.6443 7.39736C26.8194 7.38132 26.9604 7.36461 27.0674 7.34724C27.1743 7.32852 27.2518 7.30246 27.2999 7.26905C27.3494 7.23429 27.3741 7.18551 27.3741 7.12269V7.11266C27.3741 7.00975 27.3387 6.93022 27.2678 6.87408C27.197 6.81795 27.1014 6.78988 26.9811 6.78988C26.8515 6.78988 26.7472 6.81795 26.6684 6.87408C26.5346 6.96931 26.3986 7.10241 26.2345 7.09659L26.1299 7.09288C25.8542 7.0831 25.6418 6.82373 25.8016 6.59884C25.8077 6.59028 25.8139 6.58178 25.8203 6.57335C25.9326 6.42499 26.0863 6.30871 26.2814 6.2245C26.4779 6.13896 26.7138 6.09619 26.9892 6.09619C27.1856 6.09619 27.3668 6.11958 27.5325 6.16636C27.6982 6.21181 27.8426 6.27864 27.9656 6.36685C28.0885 6.45373 28.1834 6.56065 28.2502 6.68763C28.3184 6.81461 28.3525 6.95963 28.3525 7.12269V8.75465C28.3525 9.00933 28.146 9.21578 27.8914 9.21578H27.6448C27.5263 9.21578 27.4302 9.11974 27.4302 9.00126V8.80174C27.4302 8.79345 27.4235 8.78674 27.4152 8.78674C27.4097 8.78674 27.4046 8.78983 27.4019 8.79474C27.3478 8.89551 27.279 8.98106 27.1957 9.05138C27.1115 9.12356 27.0119 9.17769 26.8969 9.21378C26.7833 9.24987 26.655 9.26791 26.512 9.26791ZM26.8147 8.62635C26.9203 8.62635 27.0152 8.60496 27.0994 8.56219C27.185 8.51942 27.2531 8.46061 27.3039 8.38576C27.3547 8.30958 27.3801 8.22136 27.3801 8.12112V7.9384C27.3801 7.88838 27.3258 7.85413 27.2779 7.8685C27.2391 7.88053 27.1963 7.89189 27.1496 7.90259C27.1028 7.91328 27.0547 7.92264 27.0052 7.93066C26.9557 7.93867 26.9083 7.94603 26.8628 7.95271C26.7706 7.96741 26.6918 7.99013 26.6263 8.02087C26.5621 8.05162 26.5127 8.09171 26.4779 8.14117C26.4445 8.18928 26.4278 8.24676 26.4278 8.31359C26.4278 8.41517 26.4639 8.49269 26.5361 8.54615C26.6096 8.59962 26.7025 8.62635 26.8147 8.62635Z" fill="white"/>
<path d="M20.4399 5.8445C20.4399 5.43823 20.7693 5.10889 21.1756 5.10889C21.474 5.10889 21.7429 5.28923 21.8562 5.56539L22.7024 7.62881C22.7079 7.64228 22.721 7.65107 22.7356 7.65107C22.7501 7.65107 22.7632 7.64228 22.7688 7.62881L23.615 5.56538C23.7282 5.28923 23.9971 5.10889 24.2956 5.10889C24.7018 5.10889 25.0312 5.43823 25.0312 5.8445V8.73169C25.0312 8.99855 24.8149 9.21488 24.548 9.21488C24.2811 9.21488 24.0648 8.99855 24.0648 8.73169V6.71303C24.0648 6.70182 24.0557 6.69274 24.0445 6.69274C24.0362 6.69274 24.0287 6.69783 24.0257 6.70557L23.1577 8.90196C23.0893 9.07508 22.922 9.18881 22.7359 9.18881C22.5494 9.18881 22.382 9.07469 22.3138 8.90115L21.4454 6.69156C21.4424 6.68381 21.4349 6.67871 21.4266 6.67871C21.4154 6.67871 21.4063 6.68778 21.4063 6.69898V8.73169C21.4063 8.99855 21.19 9.21488 20.9231 9.21488C20.6563 9.21488 20.4399 8.99855 20.4399 8.73169V5.8445Z" fill="white"/>
<path d="M18.3372 4.92139C18.6028 4.92139 18.796 5.17348 18.727 5.42996L17.621 9.53861C17.5736 9.71486 17.4138 9.83735 17.2313 9.83735C16.9657 9.83735 16.7724 9.58525 16.8415 9.32877L17.9474 5.22012C17.9949 5.04387 18.1547 4.92139 18.3372 4.92139Z" fill="white"/>
<path d="M13.3103 9.26791C13.1139 9.26791 12.9394 9.23516 12.787 9.16967C12.636 9.10284 12.5164 9.0026 12.4282 8.86894C12.3413 8.73394 12.2979 8.56487 12.2979 8.3617C12.2979 8.19062 12.3279 8.04627 12.3881 7.92865C12.4482 7.81103 12.5311 7.71546 12.6367 7.64195C12.7423 7.56844 12.8639 7.51297 13.0016 7.47555C13.1392 7.43679 13.2863 7.41072 13.4427 7.39736C13.6178 7.38132 13.7588 7.36461 13.8657 7.34724C13.9726 7.32852 14.0501 7.30246 14.0983 7.26905C14.1477 7.23429 14.1724 7.18551 14.1724 7.12269V7.11266C14.1724 7.00975 14.137 6.93022 14.0662 6.87408C13.9953 6.81795 13.8998 6.78988 13.7795 6.78988C13.6498 6.78988 13.5456 6.81795 13.4667 6.87408C13.3329 6.96931 13.1969 7.10241 13.0328 7.09659L12.9282 7.09288C12.6525 7.0831 12.4402 6.82373 12.6 6.59884C12.6061 6.59028 12.6123 6.58178 12.6186 6.57335C12.7309 6.42499 12.8846 6.30871 13.0798 6.2245C13.2762 6.13896 13.5122 6.09619 13.7875 6.09619C13.984 6.09619 14.1651 6.11958 14.3308 6.16636C14.4966 6.21181 14.6409 6.27864 14.7639 6.36685C14.8869 6.45373 14.9818 6.56065 15.0486 6.68763C15.1168 6.81461 15.1508 6.95963 15.1508 7.12269V8.75465C15.1508 9.00933 14.9444 9.21578 14.6897 9.21578H14.4431C14.3246 9.21578 14.2286 9.11974 14.2286 9.00126V8.80174C14.2286 8.79345 14.2219 8.78674 14.2136 8.78674C14.208 8.78674 14.2029 8.78983 14.2003 8.79474C14.1461 8.89551 14.0774 8.98106 13.994 9.05138C13.9098 9.12356 13.8102 9.17769 13.6953 9.21378C13.5817 9.24987 13.4533 9.26791 13.3103 9.26791ZM13.6131 8.62635C13.7187 8.62635 13.8136 8.60496 13.8978 8.56219C13.9833 8.51942 14.0515 8.46061 14.1023 8.38576C14.1531 8.30958 14.1785 8.22136 14.1785 8.12112V7.9384C14.1785 7.88838 14.1241 7.85413 14.0762 7.8685C14.0374 7.88053 13.9947 7.89189 13.9479 7.90259C13.9011 7.91328 13.853 7.92264 13.8035 7.93066C13.7541 7.93867 13.7066 7.94603 13.6612 7.95271C13.569 7.96741 13.4901 7.99013 13.4246 8.02087C13.3605 8.05162 13.311 8.09171 13.2762 8.14117C13.2428 8.18928 13.2261 8.24676 13.2261 8.31359C13.2261 8.41517 13.2622 8.49269 13.3344 8.54615C13.4079 8.59962 13.5008 8.62635 13.6131 8.62635Z" fill="white"/>
<path d="M11.7248 6.61603C11.8696 6.83889 11.6515 7.08255 11.3859 7.08966L11.1641 7.09558C11.0562 7.09846 10.9681 7.01291 10.8988 6.93022C10.8574 6.87943 10.8033 6.84 10.7364 6.81193C10.6709 6.78253 10.5947 6.76783 10.5079 6.76783C10.3943 6.76783 10.2973 6.79055 10.2172 6.83599C10.1383 6.88144 10.0995 6.94292 10.1009 7.02044C10.0995 7.08059 10.1236 7.13271 10.173 7.17682C10.2238 7.22093 10.3141 7.25635 10.4437 7.28308L11.0372 7.39535C11.3446 7.45416 11.5731 7.55173 11.7228 7.68806C11.8739 7.8244 11.9501 8.00484 11.9514 8.22938C11.9501 8.44056 11.8872 8.62434 11.7629 8.78072C11.64 8.9371 11.4716 9.05873 11.2577 9.14561C11.0438 9.23115 10.7992 9.27392 10.5239 9.27392C10.0842 9.27392 9.73731 9.1837 9.48335 9.00326C9.3898 8.93595 9.3111 8.8602 9.24724 8.77602C9.07008 8.54247 9.30338 8.2672 9.59642 8.25992L9.70401 8.25725C9.88551 8.25274 10.0333 8.4064 10.1851 8.50606C10.2746 8.56486 10.3889 8.59427 10.5279 8.59427C10.6536 8.59427 10.7558 8.57088 10.8347 8.5241C10.9135 8.47732 10.9536 8.41517 10.955 8.33765C10.9536 8.26814 10.9229 8.21267 10.8627 8.17124C10.8026 8.12847 10.7084 8.09505 10.58 8.071L10.0427 7.96875C9.73397 7.91261 9.50407 7.80903 9.35303 7.65799C9.202 7.50562 9.12715 7.31182 9.12848 7.07658C9.12715 6.87074 9.18195 6.69498 9.29289 6.54929C9.40383 6.40227 9.56154 6.29 9.76605 6.21247C9.97055 6.13495 10.2118 6.09619 10.4898 6.09619C10.9068 6.09619 11.2356 6.18374 11.4762 6.35883C11.5785 6.43272 11.6614 6.51845 11.7248 6.61603Z" fill="white"/>
<path d="M8.07694 9.21742C7.80621 9.21742 7.58674 8.99795 7.58674 8.72722V6.62813C7.58674 6.3574 7.80621 6.13793 8.07694 6.13793C8.34767 6.13793 8.56714 6.3574 8.56714 6.62813V8.72722C8.56714 8.99795 8.34767 9.21742 8.07694 9.21742ZM8.07794 5.77905C7.94027 5.77905 7.82198 5.73361 7.72307 5.64272C7.62416 5.5505 7.57471 5.43956 7.57471 5.30991C7.57471 5.1816 7.62416 5.072 7.72307 4.98111C7.82198 4.88889 7.94027 4.84277 8.07794 4.84277C8.21695 4.84277 8.33524 4.88889 8.43281 4.98111C8.53172 5.072 8.58117 5.1816 8.58117 5.30991C8.58117 5.43956 8.53172 5.5505 8.43281 5.64272C8.33524 5.73361 8.21695 5.77905 8.07794 5.77905Z" fill="white"/>
<path d="M3.77751 5.10889C4.00652 5.10889 4.20865 5.25851 4.27553 5.47754L5.07624 8.09991C5.0792 8.10959 5.08813 8.1162 5.09826 8.1162C5.10838 8.1162 5.11732 8.10959 5.12028 8.09991L5.92098 5.47754C5.98786 5.25851 6.18999 5.10889 6.41901 5.10889C6.77523 5.10889 7.02629 5.45855 6.9124 5.79608L5.97008 8.58893C5.84386 8.96301 5.49306 9.21488 5.09826 9.21488C4.70346 9.21488 4.35266 8.96301 4.22644 8.58893L3.28411 5.79608C3.17023 5.45855 3.42128 5.10889 3.77751 5.10889Z" fill="white"/>
<path d="M14.963 23.9472H3.23409C3.14317 23.9472 3.05225 23.8789 3.05225 23.7651V15.5698C3.05225 15.4788 3.12044 15.3877 3.23409 15.3877H14.963C15.054 15.3877 15.1449 15.456 15.1449 15.5698V23.7651C15.1449 23.8789 15.0767 23.9472 14.963 23.9472Z" fill="#FFD05B"/>
<path d="M13.0434 18.1182C12.6348 18.1182 12.3036 18.4494 12.3036 18.858C12.3036 19.2667 12.6348 19.5979 13.0434 19.5979H14.9286C15.0481 19.5979 15.1449 19.6947 15.1449 19.8142C15.1449 19.9336 15.0481 20.0304 14.9286 20.0304H13.2255C12.7164 20.0304 12.3036 20.4432 12.3036 20.9524C12.3036 21.4616 12.7164 21.8744 13.2255 21.8744H14.9286C15.0481 21.8744 15.1449 21.9712 15.1449 22.0906C15.1449 22.2101 15.0481 22.3069 14.9286 22.3069H13.1231C12.6705 22.3069 12.3036 22.6738 12.3036 23.1264V23.73C12.3036 23.8493 12.2069 23.946 12.0876 23.946C11.9684 23.946 11.8717 23.8493 11.8717 23.73V23.1264C11.8717 22.6738 11.5048 22.3069 11.0522 22.3069H7.14497C6.69236 22.3069 6.32544 22.6738 6.32544 23.1264V23.73C6.32544 23.8493 6.22876 23.946 6.1095 23.946C5.99024 23.946 5.89356 23.8493 5.89356 23.73V23.1264C5.89356 22.6738 5.52665 22.3069 5.07403 22.3069H3.26851C3.14907 22.3069 3.05225 22.2101 3.05225 22.0906C3.05225 21.9712 3.14907 21.8744 3.26851 21.8744H4.49353C5.26675 21.8744 5.89356 21.2476 5.89356 20.4743C5.89356 19.7011 5.26675 19.0743 4.49353 19.0743H3.26851C3.14907 19.0743 3.05225 18.9775 3.05225 18.858C3.05225 18.7386 3.14907 18.6418 3.26851 18.6418H5.15371C5.56232 18.6418 5.89356 18.3105 5.89356 17.9019C5.89356 17.4933 5.56232 17.1621 5.15371 17.1621H3.26851C3.14907 17.1621 3.05225 17.0652 3.05225 16.9458C3.05225 16.8264 3.14907 16.7295 3.26851 16.7295H5.23338C5.59799 16.7295 5.89356 16.434 5.89356 16.0694V15.6251C5.89356 15.5059 5.99024 15.4092 6.1095 15.4092C6.22876 15.4092 6.32544 15.5059 6.32544 15.6251V19.1012C6.32544 20.6328 7.56701 21.8744 9.09857 21.8744C10.6301 21.8744 11.8717 20.6328 11.8717 19.1012V15.6251C11.8717 15.5059 11.9684 15.4092 12.0876 15.4092C12.2069 15.4092 12.3036 15.5059 12.3036 15.6251V16.5474C12.3036 17.176 12.8132 17.6857 13.4418 17.6857H14.9286C15.0481 17.6857 15.1449 17.7825 15.1449 17.9019C15.1449 18.0214 15.0481 18.1182 14.9286 18.1182H13.0434Z" fill="#F9B54C"/>
<path d="M66.7152 16.1098C66.7557 16.1428 66.7783 16.1908 66.7783 16.243V17.948C66.7783 17.9649 66.7663 17.9786 66.7494 17.9786C66.7458 17.9786 66.7406 17.9792 66.7373 17.9804C66.3464 18.1271 66.293 18.6465 66.293 19.0588C66.293 19.4549 66.3109 19.833 66.3109 20.2291C66.3109 20.4092 66.3109 20.6072 66.2031 20.7513C66.1652 20.7972 66.1222 20.8323 66.0751 20.8579C65.6279 21.1013 64.6588 21.0876 64.2615 20.7693C63.7042 20.3191 63.6862 19.3469 64.2255 18.8968C64.4053 18.7347 64.657 18.6087 64.7109 18.3746C64.7469 18.1946 64.639 17.9785 64.7469 17.8345C64.8188 17.7265 64.9446 17.7085 65.0705 17.6725C65.7609 17.4914 66.3009 16.8888 66.4983 16.1951C66.527 16.0944 66.634 16.0435 66.7152 16.1098Z" fill="#218279"/>
<path d="M65.956 21.6891C66.3378 21.6382 66.7829 21.9347 66.7829 22.32V25.343C66.7829 25.37 66.7521 25.377 66.7476 25.3504C66.7466 25.3448 66.7453 25.3415 66.7422 25.3367C66.3639 24.7465 65.7014 24.336 65.0211 24.3718C64.338 24.3898 63.6548 24.93 63.5649 25.6141C63.511 26.0282 63.5829 26.5864 63.1874 26.7124C63.0616 26.7664 62.9178 26.7304 62.7919 26.7124C62.3425 26.6224 61.8571 26.5144 61.5155 26.2083C61.3032 26.018 61.1465 25.7374 61.1187 25.4571C61.0863 25.1304 61.4087 24.929 61.7262 24.846C61.8732 24.8076 62.019 24.7666 62.1634 24.7222C62.6638 24.5683 62.8495 23.966 62.5402 23.5436C62.4683 23.4356 62.3964 23.3276 62.4144 23.2195C62.4503 22.8054 63.2234 22.9675 63.4391 22.5894C63.529 22.4453 63.493 22.2293 63.6189 22.1032C63.7088 22.0132 63.8346 21.9772 63.9784 21.9592C64.6256 21.9052 65.2908 21.7972 65.956 21.6891Z" fill="#218279"/>
<path d="M66.6355 27.8106C66.7149 27.8106 66.7793 27.875 66.7793 27.9544V38.9734C66.7793 39.22 66.7406 39.458 66.6674 39.681C66.5165 40.1408 66.1355 40.4776 65.7411 40.758C65.4089 40.9943 65.0385 41.19 64.6312 41.2045C64.6042 41.2055 64.5771 41.206 64.5501 41.206C64.4265 41.206 64.3312 41.0969 64.3505 40.9748C64.4823 40.1393 64.7047 39.3328 65.0175 38.5413C65.0714 38.3973 65.1254 38.2532 65.0714 38.1092C65.0175 38.0012 64.9276 37.9292 64.8377 37.8571C63.9748 37.155 63.849 35.9306 63.5973 34.8504C63.5613 34.6883 63.5074 34.5083 63.3815 34.3823C63.2917 34.3102 63.1838 34.2562 63.0579 34.2202C62.4467 34.0402 61.7815 33.9861 61.1703 33.7881C60.5591 33.59 59.9478 33.212 59.7141 32.5998C59.4265 31.7896 59.8939 30.9254 60.0557 30.0792C60.1276 29.7191 60.1456 29.359 60.0917 28.9989C60.0737 28.7828 60.0197 28.5668 60.1456 28.3867C60.2175 28.2787 60.3254 28.2067 60.4332 28.1527C61.5478 27.5405 62.6984 26.9103 63.9748 26.7663C64.3703 26.7303 64.8018 26.7483 65.1254 26.9824C65.3591 27.1624 65.5029 27.4505 65.7366 27.6125C65.9883 27.7926 66.3299 27.8106 66.6355 27.8106Z" fill="#218279"/>
<path d="M62.4503 15.3346C62.2705 15.6047 62.0188 15.8387 61.875 16.1268C61.7671 16.3609 61.7132 16.6129 61.5874 16.829C61.102 17.6392 59.6638 17.6572 59.502 18.5934C59.466 18.8095 59.502 19.0255 59.4121 19.2236C59.3042 19.4396 59.0166 19.5477 58.7829 19.5117C58.0818 19.4216 57.7761 18.5574 57.8121 17.8552C57.8301 17.1531 58.0098 16.3789 57.6683 15.7667C57.3447 15.1906 56.6795 14.9385 56.1402 14.5964C55.3301 14.0771 55.8754 13.1005 56.815 12.893C57.8904 12.6555 59.0036 12.5259 60.1492 12.5259C60.2095 12.5259 60.2697 12.5262 60.3298 12.5269C61.8807 12.5448 63.3388 14.0634 62.4503 15.3346Z" fill="#218279"/>
<path d="M56.4122 21.8324C56.3223 22.1565 56.0526 22.4806 55.7111 22.4806C55.4773 22.4806 55.2077 22.3725 55.0459 22.5166C54.9021 22.6426 54.938 22.8587 54.956 23.0387C54.974 23.4888 54.7762 23.9569 54.4346 24.263C54.2369 24.4251 54.0212 24.5511 53.8414 24.7311C53.6077 24.9652 53.5178 25.2893 53.374 25.5774C52.7088 26.9637 51.1807 27.7019 49.7245 28.206C49.2571 28.3681 48.7358 28.5661 48.556 29.0162C48.4122 29.3763 48.556 29.8264 48.8976 30.0425C49.2781 30.2754 50.0175 30.6068 50.2338 30.997C50.2686 31.0596 50.3082 31.1198 50.3537 31.1768C50.5335 31.3928 50.7852 31.5369 50.983 31.7349C51.3726 32.1252 50.9357 32.8036 50.4576 32.5287C50.384 32.4864 50.3177 32.4315 50.2639 32.3651C50.0661 32.113 50.0661 31.7709 49.8684 31.5189C49.5088 31.0688 48.8077 31.2488 48.2144 31.2128C47.2436 31.1408 46.4526 30.1505 46.5785 29.1963C46.5964 29.0342 46.6324 28.8542 46.5425 28.7282C46.4706 28.6201 46.3448 28.5841 46.2189 28.5301C45.8414 28.3681 45.5358 28.08 45.374 27.7019C45.2841 27.5038 45.2302 27.2878 45.0863 27.1257C44.8977 26.9053 44.6861 26.6745 44.7165 26.3859C45.2943 20.9001 48.7138 16.2772 53.4866 13.9941C53.9883 13.7542 54.6315 14.2842 54.129 14.5225C54.0391 14.5766 53.9133 14.5946 53.8414 14.6666C53.6976 14.7926 53.7155 15.0447 53.8234 15.2067C53.9313 15.3688 54.1111 15.4768 54.2908 15.5848C55.2077 16.161 55.9987 17.1152 55.9627 18.1955C55.9448 18.5196 55.8189 18.8977 55.5133 19.0057C55.2796 19.0957 55.0099 19.0237 54.7762 18.9517C54.4167 18.8256 54.0212 18.6096 53.9672 18.2315C53.9313 17.9974 54.0391 17.7634 54.0571 17.5293C54.0751 17.2952 53.9133 17.0072 53.6796 17.0432C53.4998 17.0792 53.4099 17.2952 53.4099 17.4933C53.4099 17.6733 53.4639 17.8714 53.4279 18.0514C53.356 18.3215 53.1043 18.4836 52.8526 18.6096C52.6009 18.7536 52.3493 18.8796 52.0976 19.0237C51.738 19.2217 51.3785 19.4378 51.1627 19.7799C50.947 20.122 50.947 20.6441 51.2886 20.8782C51.4504 21.0042 51.6841 21.0222 51.8459 21.1482C52.1155 21.3463 52.1335 21.7244 52.2594 22.0305C52.3852 22.3365 52.8167 22.5886 53.0324 22.3365C53.1043 22.2645 53.1223 22.1745 53.1403 22.0665C53.2122 21.6343 53.1582 21.2022 53.1762 20.7521C53.1942 20.32 53.3021 19.8519 53.6436 19.5638C53.9672 19.2757 54.5785 19.2938 54.7762 19.6899C54.8122 19.7619 54.8481 19.8519 54.9021 19.9239C55.1538 20.266 55.765 19.9239 56.1245 20.158C56.3223 20.284 56.3762 20.5361 56.4122 20.7521C56.4302 21.1482 56.4841 21.4903 56.4122 21.8324Z" fill="#218279"/>
<path d="M59.9235 36.1475C59.9595 36.5616 59.4741 36.7776 59.2044 37.1017C58.8988 37.4798 58.9168 38.0019 58.7909 38.452C58.5759 39.2628 57.9337 39.8328 57.3089 40.4257C56.8127 40.8965 56.164 41.2067 55.48 41.2067H53.3454C53.275 41.2067 53.2359 41.1511 53.2359 41.0807C53.3437 40.2705 53.5954 39.4063 53.2898 38.6501C53.0022 37.9479 52.319 37.4978 51.8156 36.9216C51.4201 36.4715 51.1325 35.9134 51.0066 35.3192C50.9347 35.0492 50.9168 34.7431 51.0606 34.509C51.1685 34.347 51.3302 34.257 51.4381 34.0949C51.7078 33.6988 51.4561 33.1227 51.7078 32.7266C51.8336 32.5285 52.0853 32.4205 52.319 32.3485C53.937 31.8444 55.8606 32.4565 56.8673 33.8249C56.9752 33.9689 57.0831 34.1309 57.2269 34.221C57.6224 34.473 58.2516 34.293 58.5213 34.6711C58.6291 34.8151 58.6471 34.9952 58.737 35.1392C59.0426 35.6073 59.8696 35.6253 59.9235 36.1475Z" fill="#218279"/>
<path d="M3.05225 31.2555C3.05225 31.0983 3.17965 30.9707 3.33681 30.9707H3.65461C3.98728 30.9707 4.25697 31.2404 4.25697 31.5731V33.6574C4.25697 33.8332 4.11449 33.9757 3.93874 33.9757C3.76299 33.9757 3.62051 33.8332 3.62051 33.6574V31.824C3.62051 31.667 3.4933 31.5398 3.33638 31.5398C3.17946 31.5398 3.05225 31.4124 3.05225 31.2555Z" fill="white"/>
<path d="M5.82724 33.426C6.00909 33.426 6.1682 33.3577 6.25912 33.2439C6.39527 33.0734 6.15421 32.901 5.937 32.9211C5.90804 32.9238 5.879 32.9252 5.84997 32.9252C5.57721 32.9252 5.32717 32.8341 5.14532 32.652C4.96348 32.4699 4.87256 32.2195 4.87256 31.9235C4.87256 31.6276 4.96348 31.3772 5.16806 31.195C5.37263 31.0129 5.62267 30.9219 5.94089 30.9219C6.14547 30.9219 6.32731 30.9674 6.48643 31.0357C6.64554 31.1268 6.75919 31.2406 6.85012 31.3772C7.00923 31.6503 7.10015 32.0146 7.10015 32.4471C7.10015 32.7203 7.07742 32.9707 7.00923 33.1756C6.94104 33.3805 6.85012 33.5398 6.73646 33.6764C6.50916 33.9268 6.21366 34.0406 5.8727 34.0406C5.73632 34.0406 5.59994 34.0179 5.46355 33.9724C5.34716 33.9335 5.26387 33.8946 5.19957 33.8699C5.17879 33.8619 5.1618 33.8544 5.1433 33.842C5.03047 33.7665 5.00365 33.611 5.08249 33.5004L5.22567 33.2997C5.25499 33.2586 5.31422 33.2537 5.3499 33.2894C5.44985 33.3895 5.60525 33.4068 5.74597 33.4212C5.77345 33.424 5.80035 33.426 5.82724 33.426ZM5.91816 32.3561C6.05455 32.3561 6.1682 32.3105 6.25912 32.2422C6.35004 32.1739 6.3955 32.0601 6.3955 31.9463C6.3955 31.8325 6.35004 31.7186 6.25912 31.6276C6.1682 31.5365 6.05455 31.491 5.94089 31.491C5.71132 31.491 5.50985 31.6896 5.50902 31.9192C5.50902 31.9206 5.50901 31.9221 5.50901 31.9235C5.50901 32.0601 5.55448 32.1512 5.62267 32.2422C5.66813 32.3105 5.78178 32.3561 5.91816 32.3561Z" fill="white"/>
<path d="M8.87252 31.4691C8.69068 31.4691 8.53156 31.5374 8.44064 31.6513C8.30449 31.8217 8.54555 31.9942 8.76276 31.974C8.79173 31.9713 8.82076 31.97 8.84979 31.97C9.12256 31.97 9.37259 32.061 9.55444 32.2431C9.73628 32.4253 9.8272 32.6757 9.8272 32.9716C9.8272 33.2676 9.73628 33.518 9.53171 33.7001C9.32713 33.8822 9.0771 33.9733 8.75887 33.9733C8.55429 33.9733 8.37245 33.9277 8.21333 33.8594C8.05422 33.7684 7.94057 33.6546 7.84965 33.518C7.6678 33.2448 7.59961 32.8806 7.59961 32.448C7.59961 32.1748 7.62234 31.9244 7.69053 31.7196C7.75872 31.5147 7.84965 31.3553 7.9633 31.2187C8.1906 30.9683 8.4861 30.8545 8.80433 30.8545C8.94071 30.8545 9.0771 30.8773 9.21348 30.9228C9.34986 30.9683 9.44078 31.0139 9.50897 31.0594C9.5165 31.0644 9.52403 31.0694 9.53159 31.0745C9.64842 31.1526 9.67539 31.3102 9.59751 31.4272L9.47153 31.6165C9.44388 31.658 9.38512 31.6638 9.34986 31.6285C9.32713 31.6057 9.25894 31.5602 9.14529 31.5147C9.05436 31.4919 8.96344 31.4691 8.87252 31.4691ZM8.7816 32.5618C8.64521 32.5618 8.53156 32.6074 8.44064 32.6757C8.34972 32.744 8.30426 32.8578 8.30426 32.9944C8.30426 33.131 8.34972 33.222 8.44064 33.3131C8.53156 33.4041 8.64522 33.4497 8.75887 33.4497C8.98844 33.4497 9.20855 33.2592 9.21335 33.0296C9.21344 33.0255 9.21348 33.0213 9.21348 33.0171C9.21348 32.7873 9.02317 32.5665 8.79339 32.562C8.7895 32.5619 8.78557 32.5618 8.7816 32.5618Z" fill="white"/>
<path d="M11.9113 30.9707C12.0748 30.9707 12.2073 31.1032 12.2073 31.2666C12.2073 31.4301 12.0748 31.5626 11.9113 31.5626H11.2448C11.1236 31.5626 11.0253 31.6609 11.0253 31.7821C11.0253 31.925 11.1594 32.0212 11.3022 32.0181C11.3083 32.018 11.3145 32.0179 11.3208 32.0179C11.6163 32.0179 11.8663 32.1089 12.0709 32.2911C12.2755 32.4732 12.3891 32.7008 12.3891 32.9968C12.3891 33.2927 12.2755 33.5431 12.0709 33.7252C11.8663 33.9074 11.5935 34.0212 11.2753 34.0212C10.9496 34.0212 10.6671 33.9202 10.4279 33.7297C10.3178 33.6421 10.3085 33.4836 10.3876 33.3673L10.5209 33.1716C10.5585 33.1163 10.6338 33.1123 10.6909 33.1472C10.7007 33.1531 10.7111 33.1603 10.7195 33.1681C10.7648 33.2098 10.8307 33.2532 10.9344 33.3155C11.048 33.3838 11.1617 33.4065 11.2753 33.4065C11.4913 33.4065 11.7015 33.2278 11.707 33.0119C11.7071 33.0069 11.7072 33.0019 11.7072 32.9968C11.7072 32.7589 11.4747 32.5764 11.2371 32.565C11.2271 32.5645 11.2171 32.5642 11.2071 32.5642C11.1171 32.5642 11.027 32.5788 10.9288 32.6121C10.7793 32.6627 10.609 32.6418 10.502 32.5258C10.4438 32.4627 10.4116 32.38 10.4116 32.2942V31.8686C10.4116 31.3727 10.8135 30.9707 11.3094 30.9707H11.9113Z" fill="white"/>
<path d="M16.3955 31.4691C16.2136 31.4691 16.0545 31.5374 15.9636 31.6513C15.8274 31.8217 16.0685 31.9942 16.2857 31.974C16.3147 31.9713 16.3437 31.97 16.3727 31.97C16.6455 31.97 16.8955 32.061 17.0774 32.2431C17.2592 32.4253 17.3501 32.6757 17.3501 32.9716C17.3501 33.2676 17.2592 33.518 17.0547 33.7001C16.8501 33.8822 16.6 33.9733 16.2818 33.9733C16.0772 33.9733 15.8954 33.9277 15.7363 33.8594C15.5772 33.7684 15.4635 33.6546 15.3726 33.518C15.1907 33.2448 15.1226 32.8806 15.1226 32.448C15.1226 32.1748 15.1453 31.9244 15.2135 31.7196C15.2817 31.5147 15.3726 31.3553 15.4862 31.2187C15.7136 30.9683 16.009 30.8545 16.3273 30.8545C16.4637 30.8545 16.6 30.8773 16.7364 30.9228C16.8728 30.9683 16.9637 31.0139 17.0319 31.0594C17.0395 31.0644 17.047 31.0694 17.0545 31.0745C17.1714 31.1526 17.1983 31.3102 17.1205 31.4272L16.9945 31.6165C16.9668 31.658 16.9081 31.6638 16.8728 31.6285C16.8501 31.6057 16.7819 31.5602 16.6682 31.5147C16.5773 31.4919 16.4864 31.4691 16.3955 31.4691ZM16.3045 32.5618C16.1682 32.5618 16.0545 32.6074 15.9636 32.6757C15.8727 32.744 15.8272 32.8578 15.8272 32.9944C15.8272 33.131 15.8727 33.222 15.9636 33.3131C16.0545 33.4041 16.1682 33.4497 16.2818 33.4497C16.5114 33.4497 16.7315 33.2592 16.7363 33.0296C16.7364 33.0255 16.7364 33.0213 16.7364 33.0171C16.7364 32.8806 16.691 32.7895 16.6228 32.6984C16.5546 32.6074 16.4409 32.5618 16.3045 32.5618Z" fill="white"/>
<path d="M19.4616 30.9707C19.6251 30.9707 19.7576 31.1032 19.7576 31.2666C19.7576 31.4301 19.6251 31.5626 19.4616 31.5626H18.7951C18.6739 31.5626 18.5756 31.6609 18.5756 31.7821C18.5756 31.925 18.7097 32.0212 18.8525 32.0181C18.8586 32.018 18.8648 32.0179 18.8711 32.0179C19.1666 32.0179 19.4166 32.1089 19.6212 32.2911C19.8258 32.4732 19.9394 32.7008 19.9394 32.9968C19.9394 33.2927 19.8258 33.5431 19.6212 33.7252C19.3939 33.9301 19.1438 34.0212 18.8256 34.0212C18.4999 34.0212 18.2174 33.9202 17.9782 33.7297C17.8681 33.6421 17.8588 33.4836 17.9379 33.3673L18.0711 33.1716C18.1088 33.1163 18.1841 33.1123 18.2412 33.1472C18.251 33.1531 18.2614 33.1603 18.2698 33.1681C18.3151 33.2098 18.381 33.2532 18.4847 33.3155C18.5983 33.3838 18.712 33.4065 18.8256 33.4065C19.0416 33.4065 19.2518 33.2278 19.2573 33.0119C19.2574 33.0069 19.2575 33.0019 19.2575 32.9968C19.2575 32.7589 19.025 32.5764 18.7874 32.565C18.7774 32.5645 18.7674 32.5642 18.7574 32.5642C18.6674 32.5642 18.5773 32.5788 18.4791 32.6121C18.3296 32.6627 18.1593 32.6418 18.0523 32.5258C17.9941 32.4627 17.9619 32.38 17.9619 32.2942V31.8686C17.9619 31.3727 18.3638 30.9707 18.8597 30.9707H19.4616Z" fill="white"/>
<path d="M20.2856 31.2555C20.2856 31.0983 20.413 30.9707 20.5702 30.9707H20.888C21.2207 30.9707 21.4904 31.2404 21.4904 31.5731V33.6574C21.4904 33.8332 21.3479 33.9757 21.1721 33.9757C20.9964 33.9757 20.8539 33.8332 20.8539 33.6574V31.824C20.8539 31.667 20.7267 31.5398 20.5698 31.5398C20.4129 31.5398 20.2856 31.4124 20.2856 31.2555Z" fill="white"/>
<path d="M23.3979 31.4691C23.2161 31.4691 23.057 31.5374 22.966 31.6513C22.8299 31.8217 23.0709 31.9942 23.2882 31.974C23.3171 31.9713 23.3462 31.97 23.3752 31.97C23.6479 31.97 23.898 32.061 24.0798 32.2431C24.2617 32.4253 24.3526 32.6757 24.3526 32.9716C24.3526 33.2676 24.2617 33.518 24.0571 33.7001C23.8525 33.8822 23.6025 33.9733 23.2843 33.9733C23.0797 33.9733 22.8978 33.9277 22.7387 33.8594C22.5796 33.7684 22.466 33.6546 22.375 33.518C22.1932 33.2448 22.125 32.8806 22.125 32.448C22.125 32.1748 22.1477 31.9244 22.2159 31.7196C22.2841 31.5147 22.375 31.3553 22.4887 31.2187C22.716 30.9683 23.0115 30.8545 23.3297 30.8545C23.4661 30.8545 23.6025 30.8773 23.7389 30.9228C23.8753 30.9683 23.9662 31.0139 24.0344 31.0594C24.0419 31.0644 24.0494 31.0694 24.057 31.0745C24.1738 31.1526 24.2008 31.3102 24.1229 31.4272L23.9969 31.6165C23.9693 31.658 23.9105 31.6638 23.8753 31.6285C23.8525 31.6057 23.7843 31.5602 23.6707 31.5147C23.5798 31.4919 23.4888 31.4691 23.3979 31.4691ZM23.307 32.5618C23.1706 32.5618 23.057 32.6074 22.966 32.6757C22.8751 32.744 22.8296 32.8578 22.8296 32.9944C22.8296 33.131 22.8751 33.222 22.966 33.3131C23.057 33.4041 23.1706 33.4497 23.2843 33.4497C23.5138 33.4497 23.7339 33.2592 23.7387 33.0296C23.7388 33.0255 23.7389 33.0213 23.7389 33.0171C23.7389 32.7873 23.5486 32.5665 23.3188 32.562C23.3149 32.5619 23.311 32.5618 23.307 32.5618Z" fill="white"/>
<path d="M28.3789 31.4691C28.197 31.4691 28.0379 31.5374 27.947 31.6513C27.8108 31.8217 28.0519 31.9942 28.2691 31.974C28.2981 31.9713 28.3271 31.97 28.3561 31.97C28.6289 31.97 28.8789 32.061 29.0608 32.2431C29.2426 32.4253 29.3336 32.6757 29.3336 32.9716C29.3336 33.2676 29.2426 33.518 29.0381 33.7001C28.8335 33.8822 28.5834 33.9733 28.2652 33.9733C28.0606 33.9733 27.8788 33.9277 27.7197 33.8594C27.5606 33.7684 27.4469 33.6546 27.356 33.518C27.1741 33.2448 27.106 32.8806 27.106 32.448C27.106 32.1748 27.1287 31.9244 27.1969 31.7196C27.2651 31.5147 27.356 31.3553 27.4696 31.2187C27.6969 30.9683 27.9924 30.8545 28.3107 30.8545C28.4471 30.8545 28.5834 30.8773 28.7198 30.9228C28.8562 30.9683 28.9471 31.0139 29.0153 31.0594C29.0229 31.0644 29.0304 31.0694 29.0379 31.0745C29.1548 31.1526 29.1817 31.3102 29.1039 31.4272L28.9779 31.6165C28.9502 31.658 28.8915 31.6638 28.8562 31.6285C28.8335 31.6057 28.7653 31.5602 28.6516 31.5147C28.5607 31.4919 28.4698 31.4691 28.3789 31.4691ZM28.2879 32.5618C28.1516 32.5618 28.0379 32.6074 27.947 32.6757C27.8561 32.744 27.8106 32.8578 27.8106 32.9944C27.8106 33.131 27.8561 33.222 27.947 33.3131C28.0379 33.4041 28.1516 33.4497 28.2652 33.4497C28.4948 33.4497 28.7149 33.2592 28.7197 33.0296C28.7198 33.0255 28.7198 33.0213 28.7198 33.0171C28.7198 32.7873 28.5295 32.5665 28.2997 32.562C28.2958 32.5619 28.2919 32.5618 28.2879 32.5618Z" fill="white"/>
<path d="M31.4216 30.9707C31.585 30.9707 31.7175 31.1032 31.7175 31.2666C31.7175 31.4301 31.585 31.5626 31.4216 31.5626H30.7551C30.6338 31.5626 30.5355 31.6609 30.5355 31.7821C30.5355 31.925 30.6696 32.0212 30.8124 32.0181C30.8186 32.018 30.8248 32.0179 30.831 32.0179C31.1265 32.0179 31.3766 32.1089 31.5811 32.2911C31.7857 32.4732 31.8994 32.7008 31.8994 32.9968C31.8994 33.2927 31.7857 33.5431 31.5811 33.7252C31.3766 33.9074 31.1038 34.0212 30.7856 34.0212C30.4599 34.0212 30.1774 33.9202 29.9381 33.7297C29.828 33.6421 29.8187 33.4836 29.8979 33.3673L30.0311 33.1716C30.0688 33.1163 30.1441 33.1123 30.2012 33.1472C30.211 33.1531 30.2214 33.1603 30.2298 33.1681C30.2751 33.2098 30.3409 33.2532 30.4446 33.3155C30.5583 33.3838 30.6719 33.4065 30.7856 33.4065C31.0015 33.4065 31.2118 33.2278 31.2173 33.0119C31.2174 33.0069 31.2174 33.0019 31.2174 32.9968C31.2174 32.7589 30.985 32.5764 30.7474 32.565C30.7374 32.5645 30.7274 32.5642 30.7174 32.5642C30.6273 32.5642 30.5373 32.5788 30.439 32.6121C30.2895 32.6627 30.1192 32.6418 30.0123 32.5258C29.9541 32.4627 29.9218 32.38 29.9218 32.2942V31.8686C29.9218 31.3727 30.3238 30.9707 30.8197 30.9707H31.4216Z" fill="white"/>
<path d="M32.2358 31.2555C32.2358 31.0983 32.3632 30.9707 32.5204 30.9707H32.8382C33.1709 30.9707 33.4406 31.2404 33.4406 31.5731V33.6574C33.4406 33.8332 33.2981 33.9757 33.1223 33.9757C32.9466 33.9757 32.8041 33.8332 32.8041 33.6574V31.824C32.8041 31.667 32.6769 31.5398 32.52 31.5398C32.363 31.5398 32.2358 31.4124 32.2358 31.2555Z" fill="white"/>
<path d="M35.3579 31.4691C35.176 31.4691 35.0169 31.5374 34.926 31.6513C34.7898 31.8217 35.0309 31.9942 35.2481 31.974C35.2771 31.9713 35.3061 31.97 35.3351 31.97C35.6079 31.97 35.8579 32.061 36.0398 32.2431C36.2216 32.4253 36.3126 32.6757 36.3126 32.9716C36.3126 33.2676 36.2216 33.518 36.0171 33.7001C35.8125 33.8822 35.5624 33.9733 35.2442 33.9733C35.0396 33.9733 34.8578 33.9277 34.6987 33.8594C34.5396 33.7684 34.4259 33.6546 34.335 33.518C34.1532 33.2448 34.085 32.8806 34.085 32.448C34.085 32.1748 34.1077 31.9244 34.1759 31.7196C34.2441 31.5147 34.335 31.3553 34.4487 31.2187C34.676 30.9683 34.9715 30.8545 35.2897 30.8545C35.4261 30.8545 35.5624 30.8773 35.6988 30.9228C35.8352 30.9683 35.9261 31.0139 35.9943 31.0594C36.0019 31.0644 36.0094 31.0694 36.0169 31.0745C36.1338 31.1526 36.1607 31.3102 36.0829 31.4272L35.9569 31.6165C35.9292 31.658 35.8705 31.6638 35.8352 31.6285C35.8125 31.6057 35.7443 31.5602 35.6306 31.5147C35.5624 31.4919 35.4488 31.4691 35.3579 31.4691ZM35.2669 32.5618C35.1306 32.5618 35.0169 32.6074 34.926 32.6757C34.8351 32.744 34.7896 32.8578 34.7896 32.9944C34.7896 33.131 34.8351 33.222 34.926 33.3131C35.0169 33.4041 35.1306 33.4497 35.2442 33.4497C35.4738 33.4497 35.6939 33.2592 35.6987 33.0296C35.6988 33.0255 35.6988 33.0213 35.6988 33.0171C35.6988 32.8806 35.6534 32.7895 35.5852 32.6984C35.517 32.6074 35.4033 32.5618 35.2669 32.5618Z" fill="white"/>
<path d="M40.3291 31.4691C40.1472 31.4691 39.9881 31.5374 39.8972 31.6513C39.761 31.8217 40.0021 31.9942 40.2193 31.974C40.2483 31.9713 40.2773 31.97 40.3063 31.97C40.5791 31.97 40.8291 32.061 41.011 32.2431C41.1928 32.4253 41.2837 32.6757 41.2837 32.9716C41.2837 33.2676 41.1928 33.518 40.9882 33.7001C40.7837 33.8822 40.5336 33.9733 40.2154 33.9733C40.0108 33.9733 39.829 33.9277 39.6699 33.8594C39.5108 33.7684 39.3971 33.6546 39.3062 33.518C39.1243 33.2448 39.0562 32.8806 39.0562 32.448C39.0562 32.1748 39.0789 31.9244 39.1471 31.7196C39.2153 31.5147 39.3062 31.3553 39.4198 31.2187C39.6471 30.9683 39.9426 30.8545 40.2609 30.8545C40.3973 30.8545 40.5336 30.8773 40.67 30.9228C40.8064 30.9683 40.8973 31.0139 40.9655 31.0594C40.973 31.0644 40.9806 31.0694 40.9881 31.0745C41.105 31.1526 41.1319 31.3102 41.0541 31.4272L40.9281 31.6165C40.9004 31.658 40.8417 31.6638 40.8064 31.6285C40.7837 31.6057 40.7155 31.5602 40.6018 31.5147C40.5109 31.4919 40.42 31.4691 40.3291 31.4691ZM40.2381 32.5618C40.1018 32.5618 39.9881 32.6074 39.8972 32.6757C39.8063 32.744 39.7608 32.8578 39.7608 32.9944C39.7608 33.131 39.8063 33.222 39.8972 33.3131C39.9881 33.4041 40.1018 33.4497 40.2154 33.4497C40.445 33.4497 40.6651 33.2592 40.6699 33.0296C40.67 33.0255 40.67 33.0213 40.67 33.0171C40.67 32.8806 40.6246 32.7895 40.5564 32.6984C40.4882 32.6074 40.3745 32.5618 40.2381 32.5618Z" fill="white"/>
<path d="M41.6465 31.2555C41.6465 31.0983 41.7739 30.9707 41.931 30.9707H42.2488C42.5815 30.9707 42.8512 31.2404 42.8512 31.5731V33.6574C42.8512 33.8332 42.7087 33.9757 42.533 33.9757C42.3572 33.9757 42.2147 33.8332 42.2147 33.6574V31.824C42.2147 31.667 42.0875 31.5398 41.9306 31.5398C41.7737 31.5398 41.6465 31.4124 41.6465 31.2555Z" fill="white"/>
<path d="M44.7646 31.4691C44.5828 31.4691 44.4237 31.5374 44.3327 31.6513C44.1966 31.8217 44.4376 31.9942 44.6549 31.974C44.6838 31.9713 44.7128 31.97 44.7419 31.97C45.0146 31.97 45.2647 32.061 45.4465 32.2431C45.6284 32.4253 45.7193 32.6757 45.7193 32.9716C45.7193 33.2676 45.6284 33.518 45.4238 33.7001C45.2192 33.8822 44.9692 33.9733 44.651 33.9733C44.4464 33.9733 44.2645 33.9277 44.1054 33.8594C43.9463 33.7684 43.8327 33.6546 43.7417 33.518C43.5599 33.2448 43.4917 32.8806 43.4917 32.448C43.4917 32.1748 43.5144 31.9244 43.5826 31.7196C43.6508 31.5147 43.7417 31.3553 43.8554 31.2187C44.0827 30.9683 44.3782 30.8545 44.6964 30.8545C44.8328 30.8545 44.9692 30.8773 45.1056 30.9228C45.242 30.9683 45.3329 31.0139 45.4011 31.0594C45.4086 31.0644 45.4161 31.0694 45.4237 31.0745C45.5405 31.1526 45.5675 31.3102 45.4896 31.4272L45.3636 31.6165C45.336 31.658 45.2772 31.6638 45.242 31.6285C45.2192 31.6057 45.151 31.5602 45.0374 31.5147C44.9692 31.4919 44.8555 31.4691 44.7646 31.4691ZM44.6737 32.5618C44.5373 32.5618 44.4237 32.6074 44.3327 32.6757C44.2418 32.744 44.1963 32.8578 44.1963 32.9944C44.1963 33.131 44.2418 33.222 44.3327 33.3131C44.4237 33.4041 44.5373 33.4497 44.651 33.4497C44.8805 33.4497 45.1006 33.2592 45.1054 33.0296C45.1055 33.0255 45.1056 33.0213 45.1056 33.0171C45.1056 32.8806 45.0601 32.7895 44.9919 32.6984C44.9237 32.6074 44.8101 32.5618 44.6737 32.5618Z" fill="white"/>
<path d="M47.3161 32.6792V32.4739C47.3161 32.2981 47.4585 32.1556 47.6343 32.1556H47.6907C47.8353 32.1556 47.9525 32.2728 47.9525 32.4174V32.5087C47.9525 32.6029 48.0288 32.6792 48.123 32.6792C48.2171 32.6792 48.2935 32.7555 48.2935 32.8497V33.1006C48.2935 33.1948 48.2171 33.2711 48.123 33.2711C48.0288 33.2711 47.9525 33.3474 47.9525 33.4416V33.6814C47.9525 33.8571 47.81 33.9996 47.6343 33.9996C47.4585 33.9996 47.3161 33.8571 47.3161 33.6814V33.6353C47.3161 33.4342 47.153 33.2711 46.9518 33.2711H46.5033C46.2868 33.2711 46.1113 33.0956 46.1113 32.8791C46.1113 32.8079 46.1307 32.738 46.1674 32.677L47.0887 31.1459C47.1451 31.052 47.2466 30.9946 47.3562 30.9946C47.5987 30.9946 47.7486 31.2591 47.6239 31.4672L47.0258 32.4655C46.9635 32.5696 47.0385 32.702 47.1598 32.702H47.2933C47.3059 32.702 47.3161 32.6918 47.3161 32.6792Z" fill="white"/>
</svg>
