<svg width="24" height="24" viewBox="0 0 24 24" fill="none" xmlns="http://www.w3.org/2000/svg">
<path d="M19.071 17.213C20.9477 15.3146 22.0002 12.7529 22.0002 10.0835C22.0002 7.41407 20.9477 4.85233 19.071 2.95397C18.1465 2.0182 17.0454 1.27525 15.8316 0.768176C14.6178 0.261104 13.3155 0 12 0C10.6846 0 9.38219 0.261104 8.1684 0.768176C6.9546 1.27525 5.85353 2.0182 4.92901 2.95397C3.04795 4.85669 1.99515 7.42576 2.00002 10.1013C2.00489 12.7769 3.06704 15.3421 4.95501 17.238L8.53901 20.577C9.45687 21.4845 10.6946 21.9949 11.9853 21.9983C13.2761 22.0017 14.5164 21.4977 15.439 20.595L19.071 17.213ZM13.342 14.649C12.925 14.8555 12.4659 14.9629 12.0005 14.9629C11.5351 14.9629 11.076 14.8555 10.659 14.649L8.65901 13.649C8.15943 13.4011 7.73924 13.0184 7.44603 12.544C7.15282 12.0696 6.99832 11.5226 7.00001 10.965V7.99997C6.99804 7.44224 7.15231 6.89511 7.44534 6.42056C7.73838 5.94601 8.15847 5.56302 8.65801 5.31497L10.658 4.31497C11.0748 4.10779 11.534 3.99997 11.9995 3.99997C12.465 3.99997 12.9242 4.10779 13.341 4.31497L15.341 5.31497C15.8407 5.56288 16.261 5.94581 16.5542 6.42037C16.8475 6.89493 17.0019 7.44214 17 7.99997V10.966C17.0018 11.5235 16.8474 12.0705 16.5544 12.5448C16.2614 13.0192 15.8414 13.402 15.342 13.65L13.342 14.649ZM14.949 7.69397C14.9818 7.7927 14.999 7.89594 15 7.99997V10.966C15.0008 11.152 14.9494 11.3344 14.8516 11.4926C14.7539 11.6508 14.6137 11.7785 14.447 11.861L12.447 12.861C12.3079 12.93 12.1548 12.966 11.9995 12.966C11.8442 12.966 11.6911 12.93 11.552 12.861L9.55201 11.861C9.38537 11.7782 9.24529 11.6504 9.1477 11.492C9.05012 11.3336 8.99895 11.151 9.00001 10.965V7.99997C9.0016 7.89796 9.0188 7.79679 9.05101 7.69997L11.231 8.78997C11.4698 8.90932 11.7331 8.97146 12 8.97146C12.267 8.97146 12.5302 8.90932 12.769 8.78997L14.949 7.69397ZM20 23C20 23.2652 19.8947 23.5195 19.7071 23.7071C19.5196 23.8946 19.2652 24 19 24H5.00001C4.73479 24 4.48044 23.8946 4.2929 23.7071C4.10536 23.5195 4.00001 23.2652 4.00001 23C4.00001 22.7348 4.10536 22.4804 4.2929 22.2929C4.48044 22.1053 4.73479 22 5.00001 22H19C19.2652 22 19.5196 22.1053 19.7071 22.2929C19.8947 22.4804 20 22.7348 20 23Z" fill="#8EA5A1"/>
<path d="M19 10.0004C19 13.8664 15.866 17.0004 12 17.0004C8.13402 17.0004 5.00001 13.8664 5.00001 10.0004C5.00001 6.13439 8.13402 3.00038 12 3.00038C15.866 3.00038 19 6.13439 19 10.0004Z" fill="white"/>
<path d="M13.6666 10.4168C13.4726 10.6755 13.2209 10.8855 12.9316 11.0302C12.6424 11.1748 12.3234 11.2501 11.9999 11.2501C11.6765 11.2501 11.3575 11.1748 11.0682 11.0302C10.779 10.8855 10.5273 10.6755 10.3333 10.4168C10.17 10.6369 9.96444 10.8224 9.72871 10.9623C9.49298 11.1022 9.23175 11.1937 8.96026 11.2316C8.68878 11.2695 8.41246 11.253 8.14744 11.183C7.88241 11.113 7.63397 10.9909 7.41661 10.8239V12.9168C7.41727 13.4691 7.63698 13.9986 8.02754 14.3892C8.41809 14.7798 8.94761 14.9995 9.49994 15.0001H14.4999C15.0523 14.9995 15.5818 14.7798 15.9724 14.3892C16.3629 13.9986 16.5826 13.4691 16.5833 12.9168V10.8226C16.366 10.9897 16.1176 11.1119 15.8526 11.182C15.5877 11.2521 15.3114 11.2687 15.0399 11.231C14.7684 11.1932 14.5072 11.1017 14.2714 10.962C14.0356 10.8222 13.83 10.6369 13.6666 10.4168Z" fill="#8EA5A1"/>
<path d="M16.0416 6.30514C15.961 5.93393 15.7552 5.60173 15.4587 5.36421C15.1622 5.12669 14.7931 4.9983 14.4133 5.00056H14.0833V6.25056C14.0833 6.36107 14.0394 6.46705 13.9612 6.54519C13.8831 6.62333 13.7771 6.66723 13.6666 6.66723C13.5561 6.66723 13.4501 6.62333 13.372 6.54519C13.2938 6.46705 13.2499 6.36107 13.2499 6.25056V5.00056H10.7499V6.25056C10.7499 6.36107 10.706 6.46705 10.6279 6.54519C10.5498 6.62333 10.4438 6.66723 10.3333 6.66723C10.2228 6.66723 10.1168 6.62333 10.0386 6.54519C9.96051 6.46705 9.91661 6.36107 9.91661 6.25056V5.00056H9.58661C9.20669 4.99832 8.83755 5.12677 8.54108 5.36437C8.24461 5.60197 8.03884 5.93427 7.95828 6.30556L7.42578 8.70889L7.41661 9.17556C7.41716 9.33971 7.45003 9.50215 7.51336 9.6536C7.57668 9.80505 7.66921 9.94254 7.78567 10.0582C8.02087 10.2919 8.33926 10.4225 8.67078 10.4214C8.83493 10.4208 8.99737 10.388 9.14881 10.3246C9.30026 10.2613 9.43775 10.1688 9.55344 10.0523C9.66913 9.93587 9.76074 9.79777 9.82305 9.6459C9.88537 9.49403 9.91716 9.33138 9.91661 9.16723C9.91661 9.05672 9.96051 8.95074 10.0386 8.8726C10.1168 8.79446 10.2228 8.75056 10.3333 8.75056C10.4438 8.75056 10.5498 8.79446 10.6279 8.8726C10.706 8.95074 10.7499 9.05672 10.7499 9.16723C10.7499 9.49875 10.8816 9.81669 11.1161 10.0511C11.3505 10.2855 11.6684 10.4172 11.9999 10.4172C12.3315 10.4172 12.6494 10.2855 12.8838 10.0511C13.1182 9.81669 13.2499 9.49875 13.2499 9.16723C13.2499 9.05672 13.2938 8.95074 13.372 8.8726C13.4501 8.79446 13.5561 8.75056 13.6666 8.75056C13.7771 8.75056 13.8831 8.79446 13.9612 8.8726C14.0394 8.95074 14.0833 9.05672 14.0833 9.16723C14.0833 9.49875 14.215 9.81669 14.4494 10.0511C14.6838 10.2855 15.0018 10.4172 15.3333 10.4172C15.6648 10.4172 15.9827 10.2855 16.2172 10.0511C16.4516 9.81669 16.5833 9.49875 16.5833 9.16723V8.79515L16.0416 6.30514Z" fill="#8EA5A1"/>
</svg>
